# xmcd
#
# Track frame offsets: 
#        150
#        24325
#        46100
#        68452
#        91275
#        125437
#        141630
#        163615
#        183587
#        198417
#
# Disc length: 3139 seconds
#
# Revision: 4
# Processed by: cddbd v1.5.2PL0 Copyright (c) Steve Scherf et al.
# Submitted via: ExactAudioCopy v0.95b4
#
DISCID=840c410a
DTITLE=Pat Travers - Blues Magnet
DYEAR=1994
DGENRE=Blues
TTITLE0=Blues Magnet
TTITLE1=Travelin' Blues
TTITLE2=Lil Southern Belle
TTITLE3=Rock Yer Blues Away
TTITLE4=This World We Live In
TTITLE5=She Gets The Lovin'
TTITLE6=Elaine
TTITLE7=Fall To Pieces
TTITLE8=Tore Up (From The Floor Up)
TTITLE9=You Shouldn't Have Hurt Me
EXTD=DISC: 1\nUPC: 02624520222\nLABEL: Blues Bureau International\nENS
EXTD=ORECORD: 78253\n
EXTT0=PERFORMER: Pat Travers\n
EXTT1=PERFORMER: Pat Travers\n
EXTT2=PERFORMER: Pat Travers\n
EXTT3=PERFORMER: Pat Travers\n
EXTT4=PERFORMER: Pat Travers\n
EXTT5=PERFORMER: Pat Travers\n
EXTT6=PERFORMER: Pat Travers\n
EXTT7=PERFORMER: Pat Travers\n
EXTT8=PERFORMER: Pat Travers\n
EXTT9=PERFORMER: Pat Travers\n
PLAYORDER=
